<svg xmlns="http://www.w3.org/2000/svg" viewBox="0 0 8.65 8.6"><defs><style>.cls-1{fill:#fff;}</style></defs><g id="Layer_2" data-name="Layer 2"><g id="Layer_1-2" data-name="Layer 1"><path class="cls-1" d="M4.15,8.36l.17.14.18-.14c.16-.13,4.05-3.29,4.05-5.9A2.17,2.17,0,0,0,6.91.17a2.52,2.52,0,0,0-2.59,1.1A2.52,2.52,0,0,0,1.71.16,2.17,2.17,0,0,0,.1,2.46C.1,5.07,4,8.23,4.15,8.36ZM1.84.69a1.42,1.42,0,0,1,.36,0A2.13,2.13,0,0,1,4.08,1.93l.25.5.24-.51A2,2,0,0,1,6.79.71,1.63,1.63,0,0,1,8,2.46C8,4.52,5.07,7.16,4.32,7.8,3.58,7.16.65,4.52.65,2.46A1.65,1.65,0,0,1,1.84.69Z"/><path class="cls-1" d="M4.32,8.6a.07.07,0,0,1-.06,0l-.17-.14C3.92,8.31,0,5.12,0,2.46A2.27,2.27,0,0,1,1.69.06a2.61,2.61,0,0,1,2.63,1,2.61,2.61,0,0,1,2.61-1A2.27,2.27,0,0,1,8.65,2.46c0,2.66-3.92,5.85-4.09,6l-.17.14A.08.08,0,0,1,4.32,8.6ZM2.21.2a1.84,1.84,0,0,0-.47.06A2.08,2.08,0,0,0,.2,2.46c0,2.56,3.85,5.69,4,5.82h0l.1.09.11-.09c.16-.13,4-3.26,4-5.82A2.07,2.07,0,0,0,6.89.27,2.44,2.44,0,0,0,4.4,1.33s-.05,0-.08,0h0a.09.09,0,0,1-.08,0A2.56,2.56,0,0,0,2.21.2ZM4.32,7.9l-.06,0C3.39,7.13.55,4.54.55,2.46A1.74,1.74,0,0,1,1.82.59h0a1.58,1.58,0,0,1,.38,0,2.25,2.25,0,0,1,2,1.33l.16.31.15-.31A2.11,2.11,0,0,1,6.81.61,1.72,1.72,0,0,1,8.1,2.46c0,2.08-2.84,4.67-3.71,5.41A.09.09,0,0,1,4.32,7.9ZM1.86.79A1.56,1.56,0,0,0,.75,2.46c0,2,2.84,4.56,3.57,5.2C5.06,7,7.9,4.44,7.9,2.46A1.54,1.54,0,0,0,6.77.81,1.91,1.91,0,0,0,4.66,2l-.24.5a.11.11,0,0,1-.09.06.1.1,0,0,1-.09-.06L4,2A2,2,0,0,0,2.2.75a2,2,0,0,0-.34,0Z"/></g></g></svg>