<svg xmlns="http://www.w3.org/2000/svg" viewBox="0 0 39.49 39.29"><g id="Layer_2" data-name="Layer 2"><g id="Layer_1-2" data-name="Layer 1"><path d="M19,38.2l.78.63.78-.63c.75-.61,18.5-15,18.5-26.95C39,4.8,35.17,1.62,31.56.79a11.47,11.47,0,0,0-11.83,5c-2.87-4-7.51-6.11-11.9-5.07C4.27,1.57.47,4.78.47,11.25.47,23.16,18.21,37.59,19,38.2ZM8.4,3.16A6.87,6.87,0,0,1,10.06,3c3,0,6.5,1.69,8.57,5.84l1.14,2.27,1.1-2.29c2.34-4.88,6.9-6.3,10.14-5.57,3.46.79,5.52,3.79,5.52,8,0,9.4-13.37,21.44-16.78,24.35C16.34,32.69,3,20.65,3,11.25,3,7,5,4,8.4,3.16Z"/><path d="M19.75,39.29a.47.47,0,0,1-.3-.1l-.78-.63C17.91,38,0,23.39,0,11.25,0,4.5,4,1.16,7.72.28c4.33-1,9,.83,12,4.73A11.85,11.85,0,0,1,31.66.34c3.79.86,7.83,4.18,7.83,10.91,0,12.11-17.91,26.7-18.67,27.31l-.78.63A.46.46,0,0,1,19.75,39.29ZM10.11.93a9.48,9.48,0,0,0-2.18.26c-3.38.8-7,3.86-7,10.06,0,11.7,17.58,26,18.33,26.58h0l.49.4.49-.4c.74-.6,18.32-14.91,18.32-26.58,0-6.18-3.67-9.22-7.1-10A11,11,0,0,0,20.11,6.07a.43.43,0,0,1-.38.2h0a.46.46,0,0,1-.38-.2A11.54,11.54,0,0,0,10.11.93Zm9.64,35.14a.51.51,0,0,1-.31-.11c-4-3.4-17-15.22-17-24.71,0-4.49,2.17-7.69,5.8-8.55h0a7.94,7.94,0,0,1,1.77-.2c2.87,0,6.74,1.6,9,6.1L19.76,10l.69-1.43C22.9,3.48,27.7,2,31.11,2.77c3.69.84,5.89,4,5.89,8.48C37,20.74,24,32.56,20.05,36A.5.5,0,0,1,19.75,36.07ZM8.51,3.61c-3.18.75-5.08,3.61-5.08,7.64,0,9,13,20.83,16.32,23.73,3.35-2.9,16.32-14.71,16.32-23.73,0-4-1.93-6.83-5.17-7.57C27.83,3,23.52,4.35,21.29,9l-1.1,2.29c-.08.16-.25.21-.42.27a.47.47,0,0,1-.42-.26L18.22,9c-2.07-4.12-5.57-5.58-8.16-5.58a6.52,6.52,0,0,0-1.55.17Z"/></g></g></svg>