<svg xmlns="http://www.w3.org/2000/svg" viewBox="0 0 17.77 28.04"><defs><style>.cls-1{fill:#fff;}</style></defs><g id="Layer_2" data-name="Layer 2"><g id="layout"><path class="cls-1" d="M8.72,13.76A6.81,6.81,0,1,1,15.53,7,6.82,6.82,0,0,1,8.72,13.76ZM8.72.91a6,6,0,1,0,6,6A6,6,0,0,0,8.72.91Z"/><path class="cls-1" d="M8.72,13.91a7,7,0,1,1,7-7A7,7,0,0,1,8.72,13.91ZM8.72.29A6.67,6.67,0,1,0,15.39,7,6.67,6.67,0,0,0,8.72.29Zm0,12.85A6.19,6.19,0,1,1,14.9,7,6.19,6.19,0,0,1,8.72,13.14Zm0-12.08A5.9,5.9,0,1,0,14.62,7,5.89,5.89,0,0,0,8.72,1.06Z"/><path class="cls-1" d="M17.24,27.89H.53a.39.39,0,0,1-.39-.38V21.73a8.75,8.75,0,0,1,17.49,0v5.78A.39.39,0,0,1,17.24,27.89ZM.91,27.12h16V21.73a8,8,0,0,0-15.95,0Z"/><path class="cls-1" d="M17.24,28H.53A.53.53,0,0,1,0,27.51V21.73a8.89,8.89,0,0,1,17.77,0v5.78A.53.53,0,0,1,17.24,28ZM8.89,13.14a8.6,8.6,0,0,0-8.6,8.59v5.78a.24.24,0,0,0,.24.24H17.24a.24.24,0,0,0,.24-.24V21.73A8.6,8.6,0,0,0,8.89,13.14Zm8,14.13H.91a.15.15,0,0,1-.14-.15V21.73a8.12,8.12,0,0,1,16.23,0v5.39A.15.15,0,0,1,16.86,27.27ZM1.06,27H16.71V21.73a7.83,7.83,0,0,0-15.65,0Z"/></g></g></svg>