<svg xmlns="http://www.w3.org/2000/svg" viewBox="0 0 288.32 28.23"><defs><style>.cls-1{fill:#fff;}</style></defs><g id="Layer_2" data-name="Layer 2"><g id="layout"><path class="cls-1" d="M14.66,11.78c-6.82-1.79-8-2.06-8-4.11s2.2-3.06,4.06-3.06c2.83,0,5.13.83,5.34,4.06h5.74C21.79,2.4,16.61,0,11,0,6.1,0,.91,2.65.91,8.16.91,13.22,5,14.76,9,15.82s8,1.57,8,4.46-3.13,3.35-5.23,3.35c-3.14,0-6-1.39-6-5H0c-.09,6.62,5.52,9.58,11.47,9.58,7.32,0,11.19-3.7,11.19-8.66C22.66,13.47,16.64,12.23,14.66,11.78Z"/><path class="cls-1" d="M50.92.63h5.92v27H50.92Z"/><path class="cls-1" d="M78.5,18.71h0L67.17.63H61.29V27.57h5.54v-18h.09l11.21,18h5.92v-22h7.84v22h5.93v-22h8.09v-5H78.5Z"/><path class="cls-1" d="M32.79.63,22.55,27.57h6l2.1-6h10.1l2,6h6.11L38.88.63Zm-.56,16.53,3.5-9.9h.09l3.39,9.9Z"/><path class="cls-1" d="M225.84,16H238.9V11.39H225.84V5.6H240v-5H219.86V27.57h20.39v-5H225.84Z"/><path class="cls-1" d="M260.94.63V18.71h0L249.61.63h-5.86V27.57h5.61v-18h0l11.2,18h5.93v-22h7.84v22h5.91v-22h8.08v-5Z"/><path class="cls-1" d="M211.32,14.91v-.09a6.63,6.63,0,0,0,4.26-6.76A7.4,7.4,0,0,0,208.22.61l-.48,0H193.22V27.57h5.91V17.05h5.93c3,0,4.06,1.24,4.5,4.06a28.23,28.23,0,0,0,.94,6.46h5.93c-1.07-1.57-1-4.7-1.13-6.37C215.06,18.49,214.23,15.67,211.32,14.91Zm-5.73-2.08h-6.41V5.24h6.47c2.65,0,4.08,1.13,4.08,3.73s-1.52,3.84-4.14,3.84Z"/><path class="cls-1" d="M182.9,17.38c0,4-1.35,5.85-5.57,5.85-4.8,0-5.54-2.9-5.54-5.85V.63h-5.92V17.38c0,7.32,4.22,10.82,11.48,10.82s11.49-3.55,11.49-10.82V.63h-5.91V17.38Z"/><path class="cls-1" d="M148.79.63,138.55,27.57h6l2.1-6h10.09l2,6h6.15L154.86.63Zm-.58,16.53,3.51-9.9h.09l3.45,9.9Z"/><path class="cls-1" d="M123.9.63h-6V27.57H137v-5H123.9Z"/></g></g></svg>