<?xml version="1.0" encoding="utf-8"?>
<!-- Generator: Adobe Illustrator 25.0.1, SVG Export Plug-In . SVG Version: 6.00 Build 0)  -->
<svg version="1.1" id="Layer_1" xmlns="http://www.w3.org/2000/svg" xmlns:xlink="http://www.w3.org/1999/xlink" x="0px" y="0px"
	 viewBox="0 0 25 28.6" style="enable-background:new 0 0 25 28.6;" xml:space="preserve">
<g id="Layer_2_1_">
	<g id="layout">
		<path d="M10.9,21.6C5,21.7,0.1,16.8,0.1,10.9C0.1,5,4.9,0.1,10.9,0.1c5.9,0,10.8,4.8,10.8,10.8c0,0,0,0,0,0
			C21.6,16.8,16.8,21.6,10.9,21.6z M10.9,0.9c-5.5,0-10,4.5-10,10s4.5,10,10,10s10-4.5,10-10l0,0C20.9,5.4,16.4,0.9,10.9,0.9z"/>
		<path d="M10.9,21.8C4.9,21.8,0,16.9,0,10.9S4.9,0,10.9,0s10.9,4.9,10.9,10.9c0,0,0,0,0,0C21.8,16.9,16.9,21.8,10.9,21.8z
			 M10.9,0.3C5,0.3,0.3,5,0.3,10.9S5,21.5,10.9,21.5s10.6-4.8,10.6-10.6C21.5,5,16.8,0.3,10.9,0.3z M10.9,21
			C5.3,21,0.8,16.5,0.7,10.9c0-5.6,4.5-10.1,10.1-10.2C16.4,0.7,21,5.2,21,10.8c0,0,0,0,0,0.1C21,16.5,16.5,21,10.9,21z M10.9,1
			c-5.4,0-9.8,4.4-9.8,9.8s4.4,9.8,9.8,9.8s9.8-4.4,9.8-9.8C20.7,5.4,16.3,1.1,10.9,1L10.9,1z"/>
		<path d="M24.4,28.5c-0.1,0-0.2-0.1-0.3-0.1l-7.5-8.8c-0.1-0.1-0.2-0.4,0-0.5c0,0,0,0,0,0c0.1-0.1,0.4-0.2,0.5,0c0,0,0,0,0,0
			l7.5,8.8c0.1,0.2,0.1,0.4,0,0.5C24.6,28.4,24.5,28.4,24.4,28.5L24.4,28.5z"/>
		<path d="M24.4,28.6c-0.2,0-0.3-0.1-0.4-0.2l-7.5-8.8c-0.2-0.2-0.2-0.6,0.1-0.8c0.2-0.2,0.5-0.2,0.7,0.1c0,0,0,0,0,0l7.5,8.8
			c0.2,0.2,0.2,0.6-0.1,0.8C24.7,28.6,24.6,28.6,24.4,28.6z M17,19.1c-0.1,0-0.1,0-0.2,0.1c-0.1,0.1-0.1,0.2,0,0.3c0,0,0,0,0,0
			l7.5,8.8c0.1,0.1,0.2,0.1,0.3,0c0.1-0.1,0.1-0.2,0-0.3c0,0,0,0,0,0l-7.5-8.8C17.1,19.1,17.1,19.1,17,19.1z"/>
	</g>
</g>
</svg>
