<svg xmlns="http://www.w3.org/2000/svg" viewBox="0 0 24.97 28.62"><defs><style>.cls-1{fill:#fff;}</style></defs><g id="Layer_2" data-name="Layer 2"><g id="layout"><path class="cls-1" d="M10.9,21.65A10.76,10.76,0,1,1,21.65,10.9,10.77,10.77,0,0,1,10.9,21.65ZM10.9.91a10,10,0,1,0,10,10A10,10,0,0,0,10.9.91Z"/><path class="cls-1" d="M10.9,21.79A10.9,10.9,0,1,1,21.79,10.9,10.9,10.9,0,0,1,10.9,21.79Zm0-21.5A10.61,10.61,0,1,0,21.51,10.9,10.62,10.62,0,0,0,10.9.29ZM10.9,21A10.13,10.13,0,1,1,21,10.9,10.14,10.14,0,0,1,10.9,21Zm0-20a9.84,9.84,0,1,0,9.84,9.84A9.85,9.85,0,0,0,10.9,1.06Z"/><path class="cls-1" d="M24.44,28.48a.37.37,0,0,1-.29-.14l-7.48-8.79a.38.38,0,0,1,0-.54.37.37,0,0,1,.54,0l7.48,8.79a.38.38,0,0,1-.29.63Z"/><path class="cls-1" d="M24.44,28.62a.5.5,0,0,1-.4-.18l-7.48-8.79a.54.54,0,0,1,.06-.75.52.52,0,0,1,.74.06l7.48,8.79a.54.54,0,0,1-.06.75A.52.52,0,0,1,24.44,28.62ZM17,19.06a.27.27,0,0,0-.16.06.24.24,0,0,0,0,.34l7.47,8.79a.25.25,0,0,0,.34,0,.24.24,0,0,0,0-.34l-7.48-8.79A.21.21,0,0,0,17,19.06Z"/></g></g></svg>