<svg xmlns="http://www.w3.org/2000/svg" viewBox="0 0 50.78 50.35"><g id="Layer_2" data-name="Layer 2"><g id="Layer_1-2" data-name="Layer 1"><path d="M6.94,32.09a6.68,6.68,0,1,1,6.68-6.68A6.69,6.69,0,0,1,6.94,32.09Zm0-12a5.3,5.3,0,1,0,5.29,5.29A5.3,5.3,0,0,0,6.94,20.12Z"/><path d="M6.94,32.35a6.94,6.94,0,1,1,6.94-6.94A6.94,6.94,0,0,1,6.94,32.35ZM6.94,19a6.42,6.42,0,1,0,6.42,6.42A6.43,6.43,0,0,0,6.94,19Zm0,12a5.55,5.55,0,1,1,5.55-5.55A5.57,5.57,0,0,1,6.94,31Zm0-10.58a5,5,0,1,0,5,5A5,5,0,0,0,6.94,20.38Z"/><path d="M43.84,13.62a6.68,6.68,0,1,1,6.68-6.68A6.69,6.69,0,0,1,43.84,13.62Zm0-12a5.3,5.3,0,1,0,5.29,5.3A5.31,5.31,0,0,0,43.84,1.64Z"/><path d="M43.84,13.88a6.94,6.94,0,1,1,6.94-6.94A6.94,6.94,0,0,1,43.84,13.88Zm0-13.36a6.42,6.42,0,1,0,6.42,6.42A6.43,6.43,0,0,0,43.84.52Zm0,12a5.56,5.56,0,1,1,5.55-5.55A5.56,5.56,0,0,1,43.84,12.49Zm0-10.59a5,5,0,1,0,5,5A5,5,0,0,0,43.84,1.9Z"/><path d="M43.84,50.09a6.68,6.68,0,1,1,6.68-6.68A6.68,6.68,0,0,1,43.84,50.09Zm0-12a5.3,5.3,0,1,0,5.29,5.29A5.3,5.3,0,0,0,43.84,38.12Z"/><path d="M43.84,50.35a6.94,6.94,0,1,1,6.94-6.94A6.94,6.94,0,0,1,43.84,50.35Zm0-13.36a6.42,6.42,0,1,0,6.42,6.42A6.43,6.43,0,0,0,43.84,37Zm0,12a5.56,5.56,0,1,1,5.55-5.56A5.56,5.56,0,0,1,43.84,49Zm0-10.59a5,5,0,1,0,5,5A5,5,0,0,0,43.84,38.38Z"/><path d="M12.29,23.42A.69.69,0,0,1,12,22.11L38.18,9a.69.69,0,0,1,.62,1.24L12.6,23.35A.7.7,0,0,1,12.29,23.42Z"/><path d="M12.29,23.68a1,1,0,0,1-.43-1.8L38.06,8.77a.91.91,0,0,1,.72-.06,1,1,0,0,1,.56.48,1,1,0,0,1-.43,1.28L12.72,23.58A.94.94,0,0,1,12.29,23.68Zm26.2-14.5a.46.46,0,0,0-.2.05L12.1,22.35a.44.44,0,0,0-.2.58.46.46,0,0,0,.58.19L38.68,10a.51.51,0,0,0,.22-.26.47.47,0,0,0,0-.33.4.4,0,0,0-.25-.21A.31.31,0,0,0,38.49,9.18Z"/><path d="M38.46,41.48a.66.66,0,0,1-.3-.07L12.23,28.76a.69.69,0,1,1,.61-1.24L38.77,40.17a.69.69,0,0,1-.31,1.31Z"/><path d="M38.46,41.74a1,1,0,0,1-.41-.09L12.12,29a1,1,0,0,1-.49-.55,1,1,0,0,1,0-.73A1,1,0,0,1,13,27.28L38.88,39.94a.91.91,0,0,1,.48.54.93.93,0,0,1,0,.73A1,1,0,0,1,38.46,41.74Zm-25.93-14a.44.44,0,0,0-.39.24.47.47,0,0,0,0,.33.45.45,0,0,0,.22.25L38.27,41.18a.44.44,0,0,0,.58-.2.42.42,0,0,0,0-.33.39.39,0,0,0-.22-.25L12.72,27.75A.41.41,0,0,0,12.53,27.71Z"/></g></g></svg>