<svg xmlns="http://www.w3.org/2000/svg" viewBox="0 0 11.12 11.03"><defs><style>.cls-1{fill:#fff;}</style></defs><g id="Layer_2" data-name="Layer 2"><g id="Layer_1-2" data-name="Layer 1"><path class="cls-1" d="M1.52,7A1.47,1.47,0,1,1,3,5.56,1.46,1.46,0,0,1,1.52,7Zm0-2.63A1.16,1.16,0,1,0,2.68,5.56,1.16,1.16,0,0,0,1.52,4.4Z"/><path class="cls-1" d="M1.52,7.08A1.52,1.52,0,1,1,3,5.56,1.52,1.52,0,0,1,1.52,7.08Zm0-2.92a1.41,1.41,0,1,0,1.41,1.4A1.41,1.41,0,0,0,1.52,4.16Zm0,2.62A1.22,1.22,0,1,1,2.74,5.56,1.22,1.22,0,0,1,1.52,6.78Zm0-2.32a1.11,1.11,0,1,0,1.1,1.1A1.1,1.1,0,0,0,1.52,4.46Z"/><path class="cls-1" d="M9.6,3a1.46,1.46,0,1,1,1.46-1.46A1.46,1.46,0,0,1,9.6,3ZM9.6.36a1.16,1.16,0,1,0,1.16,1.16A1.16,1.16,0,0,0,9.6.36Z"/><path class="cls-1" d="M9.6,3a1.52,1.52,0,1,1,1.52-1.52A1.52,1.52,0,0,1,9.6,3ZM9.6.11A1.41,1.41,0,1,0,11,1.52,1.41,1.41,0,0,0,9.6.11Zm0,2.63a1.22,1.22,0,1,1,1.21-1.22A1.22,1.22,0,0,1,9.6,2.74ZM9.6.42a1.1,1.1,0,1,0,1.1,1.1A1.1,1.1,0,0,0,9.6.42Z"/><path class="cls-1" d="M9.6,11a1.47,1.47,0,1,1,1.46-1.46A1.46,1.46,0,0,1,9.6,11Zm0-2.62a1.16,1.16,0,1,0,1.16,1.16A1.16,1.16,0,0,0,9.6,8.35Z"/><path class="cls-1" d="M9.6,11a1.52,1.52,0,1,1,1.52-1.52A1.53,1.53,0,0,1,9.6,11Zm0-2.93A1.41,1.41,0,1,0,11,9.51,1.41,1.41,0,0,0,9.6,8.1Zm0,2.62a1.22,1.22,0,1,1,1.21-1.21A1.22,1.22,0,0,1,9.6,10.72Zm0-2.32a1.11,1.11,0,1,0,1.1,1.11A1.11,1.11,0,0,0,9.6,8.4Z"/><path class="cls-1" d="M2.69,5.13a.14.14,0,0,1-.13-.08.16.16,0,0,1,.06-.21L8.36,2a.14.14,0,0,1,.2.07.14.14,0,0,1-.07.2L2.76,5.11Z"/><path class="cls-1" d="M2.69,5.19a.22.22,0,0,1-.19-.12.21.21,0,0,1,.1-.28L8.33,1.92a.18.18,0,0,1,.16,0,.18.18,0,0,1,.12.1.21.21,0,0,1-.09.28L2.78,5.16A.14.14,0,0,1,2.69,5.19ZM8.43,2h0L2.65,4.89A.1.1,0,0,0,2.6,5a.06.06,0,0,0,0,.07.09.09,0,0,0,.12,0L8.47,2.19a.12.12,0,0,0,0,0,.22.22,0,0,0,0-.08.07.07,0,0,0,0,0Z"/><path class="cls-1" d="M8.42,9.08H8.36L2.68,6.3a.14.14,0,0,1-.07-.2A.14.14,0,0,1,2.81,6L8.49,8.8a.15.15,0,0,1,.07.2A.16.16,0,0,1,8.42,9.08Z"/><path class="cls-1" d="M8.42,9.14l-.09,0L2.65,6.35a.23.23,0,0,1-.1-.12.18.18,0,0,1,0-.16A.21.21,0,0,1,2.84,6L8.51,8.74a.25.25,0,0,1,.11.12.22.22,0,0,1,0,.16A.22.22,0,0,1,8.42,9.14ZM2.74,6.07a.1.1,0,0,0-.08,0,.17.17,0,0,0,0,.07.1.1,0,0,0,.05.06L8.38,9a.1.1,0,0,0,.13,0,.08.08,0,0,0,0-.07.08.08,0,0,0,0-.05L2.79,6.08Z"/></g></g></svg>