<svg xmlns="http://www.w3.org/2000/svg" viewBox="0 0 39.56 59.44"><g id="Layer_2" data-name="Layer 2"><g id="Layer_1-2" data-name="Layer 1"><path d="M38.44,59.14H1.12a.82.82,0,0,1-.82-.81V13.69a.82.82,0,0,1,.82-.81H38.44a.82.82,0,0,1,.82.81V58.33A.82.82,0,0,1,38.44,59.14ZM1.93,57.51h35.7v-43H1.93Z"/><path d="M38.44,59.44H1.12A1.12,1.12,0,0,1,0,58.33V13.69a1.12,1.12,0,0,1,1.12-1.11H38.44a1.12,1.12,0,0,1,1.12,1.11V58.33A1.12,1.12,0,0,1,38.44,59.44ZM1.12,13.19a.5.5,0,0,0-.51.5V58.33a.51.51,0,0,0,.51.5H38.44a.51.51,0,0,0,.51-.5V13.69a.5.5,0,0,0-.51-.5ZM37.63,57.82H1.93a.31.31,0,0,1-.31-.31v-43a.31.31,0,0,1,.31-.31h35.7a.31.31,0,0,1,.31.31v43A.31.31,0,0,1,37.63,57.82Zm-35.4-.61h35.1V14.81H2.23Z"/><path d="M31.75,23.23a.81.81,0,0,1-.81-.81V13.09a11.16,11.16,0,1,0-22.32,0v9.33a.81.81,0,1,1-1.62,0V13.09a12.78,12.78,0,1,1,25.56,0v9.33A.81.81,0,0,1,31.75,23.23Z"/><path d="M31.75,23.53a1.12,1.12,0,0,1-1.12-1.11V13.09a10.85,10.85,0,1,0-21.7,0v9.33a1.12,1.12,0,0,1-2.24,0V13.09a13.09,13.09,0,1,1,26.18,0v9.33A1.12,1.12,0,0,1,31.75,23.53Zm-12-21.91A11.48,11.48,0,0,1,31.24,13.09v9.33a.51.51,0,0,0,1,0V13.09a12.48,12.48,0,1,0-25,0v9.33a.51.51,0,0,0,1,0V13.09A11.48,11.48,0,0,1,19.78,1.62Z"/></g></g></svg>