<svg xmlns="http://www.w3.org/2000/svg" viewBox="0 0 18.75 28.17"><defs><style>.cls-1{fill:#fff;}</style></defs><g id="Layer_2" data-name="Layer 2"><g id="layout"><path class="cls-1" d="M18.22,28H.53a.39.39,0,0,1-.39-.38V6.49a.39.39,0,0,1,.39-.38H18.22a.39.39,0,0,1,.39.38V27.65A.39.39,0,0,1,18.22,28ZM.91,27.26H17.84V6.88H.91Z"/><path class="cls-1" d="M18.22,28.17H.53A.52.52,0,0,1,0,27.65V6.49A.53.53,0,0,1,.53,6H18.22a.53.53,0,0,1,.53.53V27.65A.52.52,0,0,1,18.22,28.17ZM.53,6.25a.24.24,0,0,0-.24.24V27.65a.24.24,0,0,0,.24.24H18.22a.24.24,0,0,0,.24-.24V6.49a.24.24,0,0,0-.24-.24ZM17.84,27.41H.91a.15.15,0,0,1-.14-.15V6.88a.15.15,0,0,1,.14-.15H17.84a.15.15,0,0,1,.14.15V27.26A.15.15,0,0,1,17.84,27.41ZM1.06,27.12H17.69V7H1.06Z"/><path class="cls-1" d="M15.05,11a.39.39,0,0,1-.39-.38V6.2a5.29,5.29,0,1,0-10.57,0v4.43A.39.39,0,0,1,3.7,11a.38.38,0,0,1-.38-.38V6.2a6.06,6.06,0,1,1,12.11,0v4.43A.38.38,0,0,1,15.05,11Z"/><path class="cls-1" d="M15.05,11.15a.52.52,0,0,1-.53-.52V6.2a5.15,5.15,0,0,0-10.29,0v4.43a.53.53,0,0,1-1.06,0V6.2a6.21,6.21,0,0,1,12.41,0v4.43A.52.52,0,0,1,15.05,11.15ZM9.38.77A5.44,5.44,0,0,1,14.81,6.2v4.43a.24.24,0,1,0,.48,0V6.2a5.92,5.92,0,0,0-11.83,0v4.43a.24.24,0,0,0,.48,0V6.2A5.44,5.44,0,0,1,9.38.77Z"/></g></g></svg>