<svg xmlns="http://www.w3.org/2000/svg" viewBox="0 0 825.37 373.2"><defs><style>.cls-1{fill:#f4f4f4;}</style></defs><g id="Layer_2" data-name="Layer 2"><g id="layout"><path class="cls-1" d="M173.43,60.33l-7,24.28H164.8C151.5,53.33,134.46,41.43,116,41.43c-23.1,0-36.41,13.07-37.81,27.07-4.43,46.68,95.69,31.28,95.69,89.62,0,27.78-25,47.38-58.11,47.38-27.78,0-45.05-9.33-63.25-23.1l7-26.61h1.64c11.9,23.81,33.6,45.05,64.18,45.05,19.84,0,36.41-12.84,38.27-27.54,6.07-49.72-94.29-33.85-94.29-92.43,0-18.9,15.17-42.47,52.75-42.47C140.06,38.4,159.66,49.6,173.43,60.33Z"/><path class="cls-1" d="M228.92,206.16h-15.4V169.48c-2,17.06-7.09,37.59-26.72,37.59-13.88,0-24.9-8.76-24.9-26.57V145.17c0-5.28-.46-6.79-3.33-7.24v-1.06l14.2-3.32h1v49.21c0,13.14,6.79,24,19.78,21.59,16.9-3.32,19.92-34.87,19.92-47.55V145.17c0-5.28-.45-6.79-3.32-7.24v-1.06l14.19-3.32h1.06V196.2c0,5.28,1.06,7.55,3.47,8.9Z"/><path class="cls-1" d="M343.44,205.1v1.06H324.87V205.1c2.27-1.35,3-3.92,2.57-8.9-.61-5-2.72-30.5-3.47-38.35-1.21-11.32-5.59-24.15-17.36-21.58-13.89,3-15.7,26.42-15.85,42.27V196.2c0,5.28,1.05,7.55,3.32,8.9v1.06H275.51V205.1c2.26-1.35,3.32-3.62,3.32-8.9V157.85c0-11.47-5.28-23.85-17.06-21.58-16.9,3.17-17.66,34.72-17.66,47.55V196.2c0,5.28,1.21,7.55,3.47,8.9v1.06H228.86V205.1c2.27-1.35,3.48-3.62,3.48-8.9v-51c0-5.28-.46-6.79-3.48-7.24v-1.06l14.19-3.32h1.06v33.51c1.66-16,6.19-33.51,24.3-33.51,11.63,0,21.59,10,22.2,26.57l.15,1.66c1.81-14.64,7.39-28.23,22.64-28.23,11.93,0,20.38,8.91,22.19,26.57,1.66,14.64,3,30.49,3.62,36.08C339.82,201.63,341.18,203.75,343.44,205.1Z"/><path class="cls-1" d="M457.52,205.1v1.06H439V205.1c2.27-1.35,3-3.92,2.57-8.9-.61-5-2.72-30.5-3.47-38.35-1.21-11.32-5.59-24.15-17.36-21.58-13.89,3-15.7,26.42-15.86,42.27V196.2c0,5.28,1.06,7.55,3.33,8.9v1.06H389.59V205.1c2.26-1.35,3.32-3.62,3.32-8.9V157.85c0-11.47-5.28-23.85-17.06-21.58-16.91,3.17-17.66,34.72-17.66,47.55V196.2c0,5.28,1.21,7.55,3.47,8.9v1.06H342.94V205.1c2.27-1.35,3.47-3.62,3.47-8.9v-51c0-5.28-.45-6.79-3.47-7.24v-1.06l14.19-3.32h1.06v33.51c1.66-16,6.19-33.51,24.3-33.51,11.63,0,21.59,10,22.19,26.57l.15,1.66c1.82-14.64,7.4-28.23,22.65-28.23,11.92,0,20.38,8.91,22.19,26.57,1.66,14.64,3,30.49,3.62,36.08C453.9,201.63,455.25,203.75,457.52,205.1Z"/><path class="cls-1" d="M524.11,182.16c-.9,10.72-10.41,24.91-31.85,24.91-20.83,0-40.91-10.27-41.51-35.18-.76-26.11,22.94-37.43,39.55-38.34,12.83-.6,30.49,5.59,32.61,23.85h-14C517.47,159.67,525.32,168.42,524.11,182.16ZM502.68,157.4h-39.1a43.57,43.57,0,0,0,1.06,24.15c5.58,15.86,16.9,22.8,32.3,22.2,13-.61,24.31-9.51,25.82-21.29C524.57,166.76,514.15,157.4,502.68,157.4Zm-38.8-1.21H512c-2-13.13-13.74-23.7-28.53-20.83C473.24,137.32,466.6,145.93,463.88,156.19Z"/><path class="cls-1" d="M574.56,142.51l-9.2,13-1.06-.61c-.3-8.6-4.53-19.77-12.68-18.56-14.79,2.26-16.76,41.21-16.76,54v5.89c0,5.28,1.06,7.54,3.32,8.9v1.06H519.47v-1.06c2.41-1.36,3.47-3.62,3.47-8.9v-51c0-5.28-.45-6.79-3.47-7.24v-1.06l14.19-3.32h1.2v40.46c1.51-18.27,5.74-40.46,21.74-40.46C564.75,133.6,569.43,136.47,574.56,142.51Z"/><path class="cls-1" d="M691,173.37l-4.68,34.52H555.5v-2c46.81-35.69,108-98.6,104.45-157.7-1.46-24-11.7-44.47-36.57-45.06-20.48-.29-44.18,22-50,61.44h-2l-12-33.64C576.86,15.66,600.85,1.62,622.21.16c31.3-2,55.88,16.38,61.44,42.13,10.82,51.2-34.23,90.7-100.65,144h82.22c12.28,0,19.31-3.22,23.4-12.87Z"/><path class="cls-1" d="M824.44,279.22c-4.19,28-33.86,59.66-80.3,59.66-30.63,0-60.62-14.19-79-32.25L678,266.32h2.58c6.13,43.21,34.82,68.36,61.91,69,38.7,1.29,54.18-26.44,56.76-54.5,4.51-46.44-23.86-81.26-76.1-62.24a18.72,18.72,0,0,1-1-2.25c38.69-13.87,61.27-37.41,60-66.76-1-24.83-13.22-38.37-32.89-38.37-26.77,0-52.24,18.7-58.37,62.24h-2.26l-13.22-33.54c18.38-18.06,48-31.93,75.46-31.93,34.5,0,55.78,16.45,55.78,43.22,0,40.63-43.21,51.59-68.68,60.62C786.71,198.6,832.5,228.59,824.44,279.22Z"/><path class="cls-1" d="M163.87,325.1c-12.73,26.41-35.36,48.1-77.1,48.1C40.32,373.2,0,335.47,0,288.79s42.21-84.42,88.89-84.42c25.47,0,40.8,6.6,60.84,19.81l-7.08,26.88H141c-17.21-27.35-45.27-47.63-76.16-41-40.32,8.73-54.94,56.36-42.2,98.09,12.73,41.5,46.68,63.19,88.18,56.83,21.22-3.07,39.38-17,51.4-40.56Z"/><path class="cls-1" d="M234.08,291.85c0,26.22-22.45,43.42-44.41,43.42-22.12,0-41-13.43-41-36.37,0-27,22.45-43.42,44.41-43.42S234.08,269.24,234.08,291.85Zm-13.77-5.24C214.58,267,199.18,253,180.5,258.43s-23.76,25.89-18,45.71c5.74,19.66,21.14,33.76,39.82,28.19C221,326.92,226.05,306.44,220.31,286.61Z"/><path class="cls-1" d="M250.81,333.14v1.15H230.66v-1.15c2.46-1.47,3.6-3.93,3.6-9.66V228.77c0-5.73-.49-7.37-3.6-7.86v-1.32l15.4-3.44h1.15V323.48C247.21,329.21,248.35,331.67,250.81,333.14Z"/><path class="cls-1" d="M270.28,333.14v1.15H250.12v-1.15c2.46-1.47,3.61-3.93,3.61-9.66V228.77c0-5.73-.49-7.37-3.61-7.86v-1.32l15.41-3.44h1.14V323.48C266.67,329.21,267.82,331.67,270.28,333.14Z"/><path class="cls-1" d="M346.2,308.24c-1,11.63-11.3,27-34.57,27-22.61,0-44.4-11.14-45.06-38.17-.82-28.35,24.91-40.64,42.93-41.62,13.93-.66,33.1,6.06,35.39,25.89H329.65C339,283.82,347.51,293.33,346.2,308.24Zm-23.27-26.87H280.5a47.35,47.35,0,0,0,1.14,26.21c6.07,17.21,18.35,24.75,35.07,24.09,14.09-.66,26.38-10.32,28-23.1C346.69,291.53,335.39,281.37,322.93,281.37Zm-42.11-1.31h52.27c-2.13-14.26-14.91-25.73-31-22.61C291,259.57,283.77,268.91,280.82,280.06Z"/><path class="cls-1" d="M396,331.86c16.22-1.64,25.07-16.06,27.69-20.64l1,.49c-5.08,9.17-14.75,22-34.24,23.1-22.62,1.15-45.23-11.14-45.88-38.18-.82-28.34,24.9-41.61,42.93-41.61,9.34,0,22.44,4.26,31,8.68L416,277.3h-1c-3.93-9.83-19.49-23.92-34.9-20.32-20.15,4.59-27.52,30.48-20.64,50.14C365.48,324.33,379.41,333.5,396,331.86Z"/><path class="cls-1" d="M474.24,305.62c-3.11,15.4-10,29.65-27.2,29.65-14.58,0-23.59-9.5-23.59-28.83V256.79h-9.67v-1.31c13.93,0,15.08-14.58,15.08-22.45H441.8c0,12.62-12.45,22-22.28,22.45h36.21v1.31H436.39v52.1c0,14.26,3.94,25.24,17.86,23.44,10.82-1.48,16.22-14.42,19.17-27Z"/><path class="cls-1" d="M489.61,333.14v1.15H469.3v-1.15c2.45-1.47,3.6-3.93,3.6-9.66V268.1c0-5.74-.49-7.38-3.6-7.87v-1.15l15.4-3.6h1.15v68C485.85,329.21,487,331.67,489.61,333.14Zm-18.35-98.63a7.71,7.71,0,1,1,7.7,7.7A7.7,7.7,0,0,1,471.26,234.51Z"/><path class="cls-1" d="M570.3,291.85c0,26.22-22.45,43.42-44.41,43.42-22.12,0-41-13.43-41-36.37,0-27,22.45-43.42,44.4-43.42S570.3,269.24,570.3,291.85Zm-13.77-5.24C550.8,267,535.4,253,516.72,258.43s-23.76,25.89-18,45.71c5.74,19.66,21.14,33.76,39.82,28.19C557.19,326.92,562.27,306.44,556.53,286.61Z"/><path class="cls-1" d="M647.27,333.14v1.15H627v-1.15c2.62-1.47,3.28-4.26,2.78-9.66s-3-33.1-3.76-41.62c-1.15-12.29-7.21-26.22-21.31-23.43-18.35,3.6-21.79,37.85-21.79,51.61v13.44c0,5.73,1.15,8.19,3.77,9.66v1.15H566.32v-1.15c2.46-1.47,3.61-3.93,3.61-9.66V268.1c0-5.74-.49-7.38-3.61-7.87v-1.15l15.41-3.6h1.14v40.63c2.13-18.35,7.7-40.63,29-40.63,13.44,0,24.91,9.17,26.88,28.84,1.63,15.89,3.27,33.09,3.93,39.16C643.33,329.38,644.81,331.67,647.27,333.14Z"/></g></g></svg>