<svg xmlns="http://www.w3.org/2000/svg" viewBox="0 0 4.81 10"><defs><style>.cls-1{fill-rule:evenodd;}</style></defs><g id="Layer_2" data-name="Layer 2"><g id="Layer_1-2" data-name="Layer 1"><g id="Layer_2-2" data-name="Layer 2"><g id="Layer_1-2-2" data-name="Layer 1-2"><path class="cls-1" d="M.85,0h.51l.57,1.93h0a2,2,0,0,1,.48-.08A2.64,2.64,0,0,1,3,1.91h0L4.29,0h.52a.85.85,0,0,0-.33.32c-.28.38-.55.77-.82,1.15L3.32,2l0,0a2.14,2.14,0,0,1,.65.35l0,0a.06.06,0,0,1,0,0l-.12.5h0l0-.05A.91.91,0,0,0,3.7,2.7a1.56,1.56,0,0,0-.57-.48l0,0L2.58,3a1.18,1.18,0,0,0-.16.29,2.19,2.19,0,0,0-.12.33c0,.06,0,.12,0,.18a1.16,1.16,0,0,0,0,.18c-.06.25-.11.5-.16.74l.18.22,0,0c.08-.35.15-.7.23-1a1.11,1.11,0,0,0,0-.19.3.3,0,0,0,0-.15h.73L2.83,5c0,.14-.07.3-.11.45v0s0,0,0,0A2.16,2.16,0,0,1,3,5.88a2.12,2.12,0,0,1,.26.38,1.34,1.34,0,0,1,.15.48,1.76,1.76,0,0,1-.07.56,1.71,1.71,0,0,1-.49.79A1.67,1.67,0,0,1,2,8.52c-.09.36-.17.72-.26,1.08,0,0,0,.05,0,.08a.11.11,0,0,0,0,.08s0,0,.07,0h.1c.35,0,.68,0,1,0l.37,0c.48-.06,1-.14,1.39-.24h0l-.22.39L4.33,10H1.08a.61.61,0,0,0,.16-.31l.24-1.13A1.85,1.85,0,0,1,1,8.48a2.18,2.18,0,0,1-.64-.29A1.57,1.57,0,0,1,0,7.89H0c.05-.21.1-.42.16-.63A1.69,1.69,0,0,0,.68,8a1.57,1.57,0,0,0,.37.24l.21.08a.86.86,0,0,0,.27.05h0c.1-.45.2-.89.29-1.34S2,6.12,2.1,5.69a.06.06,0,0,0,0,0s0,0,0,0L2,5.47l0,0h0c0,.21-.09.43-.14.65a.57.57,0,0,0,0,.39s0,0,0,0H1.12a.41.41,0,0,0,.1-.13.6.6,0,0,0,.06-.19L1.49,5l-.26-.29A2.43,2.43,0,0,1,1,4.37,1.37,1.37,0,0,1,.77,4a1.28,1.28,0,0,1-.09-.48,1.61,1.61,0,0,1,.08-.48,1.84,1.84,0,0,1,.17-.38,1.73,1.73,0,0,1,.56-.55c-.08-.27-.14-.56-.22-.83A2.68,2.68,0,0,0,1.2,1c0-.18-.09-.37-.14-.55A.82.82,0,0,0,.85,0ZM2.37,2A1.23,1.23,0,0,0,2,2.12l.3,1,0,0,.57-.9,0-.06h0A1.28,1.28,0,0,0,2.37,2Zm-1.09.74A1.21,1.21,0,0,0,1.2,3a1.06,1.06,0,0,0,0,.31,1.31,1.31,0,0,0,.06.27,1.47,1.47,0,0,0,.1.22,1.66,1.66,0,0,0,.25.34l0,0s0,0,0,0,0,0,0,0,0,0,0,0c0-.22.07-.42.1-.64a.65.65,0,0,0,0-.24,1,1,0,0,0,0-.24c-.05-.21-.11-.42-.16-.64h0A1.21,1.21,0,0,0,1.28,2.78ZM2.36,8.17a1.15,1.15,0,0,0,.56-.73,1.25,1.25,0,0,0,0-.74,1.69,1.69,0,0,0-.32-.55L2.05,8.29A.91.91,0,0,0,2.36,8.17Z"/></g></g></g></g></svg>