<svg xmlns="http://www.w3.org/2000/svg" viewBox="0 0 20.26 20.26"><defs><style>.cls-1{fill:#fff;}</style></defs><g id="Layer_2" data-name="Layer 2"><g id="layout"><path class="cls-1" d="M10.13,1.83c2.7,0,3,0,4.09,0a5.63,5.63,0,0,1,1.88.35A3.36,3.36,0,0,1,18,4.16,5.63,5.63,0,0,1,18.38,6c0,1.06.05,1.38.05,4.09s0,3-.05,4.09A5.63,5.63,0,0,1,18,16.1,3.36,3.36,0,0,1,16.1,18a5.63,5.63,0,0,1-1.88.35c-1.07,0-1.39.05-4.09.05s-3,0-4.09-.05A5.63,5.63,0,0,1,4.16,18,3.36,3.36,0,0,1,2.23,16.1a5.63,5.63,0,0,1-.35-1.88c0-1.07,0-1.39,0-4.09s0-3,0-4.09a5.63,5.63,0,0,1,.35-1.88A3.36,3.36,0,0,1,4.16,2.23,5.63,5.63,0,0,1,6,1.88c1.06,0,1.38,0,4.09,0m0-1.83C7.38,0,7,0,6,.06A7.55,7.55,0,0,0,3.49.53,5,5,0,0,0,1.7,1.7,5,5,0,0,0,.53,3.49,7.55,7.55,0,0,0,.06,6C0,7,0,7.38,0,10.13s0,3.1.06,4.18a7.43,7.43,0,0,0,.47,2.45,5,5,0,0,0,1.17,1.8,5,5,0,0,0,1.79,1.17A7.55,7.55,0,0,0,6,20.2c1.08.05,1.43.06,4.18.06s3.1,0,4.18-.06a7.43,7.43,0,0,0,2.45-.47,5.17,5.17,0,0,0,3-3,7.43,7.43,0,0,0,.47-2.45c.05-1.08.06-1.43.06-4.18S20.25,7,20.2,6a7.55,7.55,0,0,0-.47-2.46A5,5,0,0,0,18.56,1.7,5,5,0,0,0,16.76.53,7.43,7.43,0,0,0,14.31.06C13.23,0,12.88,0,10.13,0Z"/><path class="cls-1" d="M10.13,4.93a5.2,5.2,0,1,0,5.2,5.2A5.2,5.2,0,0,0,10.13,4.93Zm0,8.58a3.38,3.38,0,1,1,3.38-3.38A3.38,3.38,0,0,1,10.13,13.51Z"/><circle class="cls-1" cx="15.54" cy="4.72" r="1.22"/></g></g></svg>