<svg xmlns="http://www.w3.org/2000/svg" viewBox="0 0 24.76 22.84"><defs><style>.cls-1{fill:#fff;}</style></defs><g id="Layer_2" data-name="Layer 2"><g id="layout"><path class="cls-1" d="M12.54,19.51a13.47,13.47,0,0,1-2.2-.13.42.42,0,0,0-.29.07c-1.45,1-2.9,2-4.4,3l-.56.32a.48.48,0,0,1-.21.07c-.24,0-.38-.1-.33-.34.09-.42.21-.83.33-1.24.3-1,.59-2.07.89-3.1,0-.09,0-.13-.08-.18A11.53,11.53,0,0,1,2,15.1,8.42,8.42,0,0,1,.1,11a7.77,7.77,0,0,1,.9-5A10.26,10.26,0,0,1,4.52,2.22a13.82,13.82,0,0,1,5.11-2A15.79,15.79,0,0,1,13.75.06a13.86,13.86,0,0,1,7.11,2.6,9.43,9.43,0,0,1,3.21,3.92,7.79,7.79,0,0,1-.59,7.48,10.47,10.47,0,0,1-3.79,3.57A14.05,14.05,0,0,1,15,19.3,13.93,13.93,0,0,1,12.54,19.51Z"/><path d="M18.29,9.09A.83.83,0,0,1,18.37,9L20.2,7.14A.6.6,0,0,1,21,7a.69.69,0,0,1,.33.77.64.64,0,0,1-.18.28c-.5.5-1,1-1.5,1.49-.07.07-.06.11,0,.19.56.73,1.12,1.46,1.67,2.2a.72.72,0,1,1-1.13.88l-1.48-2,0-.05c-.06-.05-.07-.16-.16-.17s-.24.25-.24.33c0,.49,0,1,0,1.48a.69.69,0,0,1-.59.68.73.73,0,0,1-.77-.41.81.81,0,0,1-.06-.31V7.57a.71.71,0,1,1,1.42,0c0,.47,0,.93,0,1.4v.1Z"/><path d="M4.82,10.41v-2c0-.11,0-.15-.14-.14H3.73A.69.69,0,0,1,3,7.55a.7.7,0,0,1,.72-.71H7.34a.71.71,0,0,1,.72.62.7.7,0,0,1-.52.76.82.82,0,0,1-.22,0h-1c-.1,0-.12,0-.12.13v4a.72.72,0,1,1-1.43,0C4.81,11.77,4.82,11.09,4.82,10.41Z"/><path d="M12.88,10V7.56a.72.72,0,0,1,.66-.71.73.73,0,0,1,.78.53,1.23,1.23,0,0,1,0,.27c0,1.32,0,2.65,0,4,0,.11,0,.14.14.14h1.4a.65.65,0,0,1,.05,1.3H13.5a.64.64,0,0,1-.62-.65Z"/><path d="M12.39,12c-.29-.79-.59-1.57-.89-2.35l-.8-2.1a1,1,0,0,0-1.1-.66,1,1,0,0,0-.8.7c-.49,1.27-1,2.55-1.45,3.82a5.89,5.89,0,0,0-.32.92c-.11.51.07.77.56.84a.65.65,0,0,0,.78-.44c.09-.24.18-.47.26-.7,0-.08.06-.1.14-.1h2c.09,0,.12,0,.15.11.08.24.19.47.26.71a.6.6,0,0,0,.6.43,1.11,1.11,0,0,0,.44-.08.46.46,0,0,0,.32-.42A1.44,1.44,0,0,0,12.39,12ZM9.57,10.65H9.15c-.09,0-.1,0-.07-.1L9.62,9c0-.12.08-.23.14-.38.24.69.47,1.35.71,2Z"/></g></g></svg>