<svg xmlns="http://www.w3.org/2000/svg" viewBox="0 0 21.35 17.35"><defs><style>.cls-1{fill:#fff;}</style></defs><g id="Layer_2" data-name="Layer 2"><g id="layout"><path class="cls-1" d="M6.71,17.35A12.38,12.38,0,0,0,19.18,4.89c0-.19,0-.38,0-.57a8.92,8.92,0,0,0,2.19-2.27,8.55,8.55,0,0,1-2.52.69A4.38,4.38,0,0,0,20.76.32,8.66,8.66,0,0,1,18,1.38a4.39,4.39,0,0,0-7.58,3,4.71,4.71,0,0,0,.11,1A12.41,12.41,0,0,1,1.49.8,4.34,4.34,0,0,0,.89,3,4.41,4.41,0,0,0,2.84,6.65a4.28,4.28,0,0,1-2-.55v.06a4.38,4.38,0,0,0,3.51,4.29,4.37,4.37,0,0,1-1.15.16,4.49,4.49,0,0,1-.83-.08,4.4,4.4,0,0,0,4.09,3A8.78,8.78,0,0,1,1,15.44a8.94,8.94,0,0,1-1-.06,12.42,12.42,0,0,0,6.71,2"/></g></g></svg>