<svg xmlns="http://www.w3.org/2000/svg" viewBox="0 0 24.33 17.03"><defs><style>.cls-1{fill:#fff;}</style></defs><g id="Layer_2" data-name="Layer 2"><g id="layout"><path class="cls-1" d="M23.82,2.66A3,3,0,0,0,21.67.51C19.78,0,12.17,0,12.17,0S4.56,0,2.66.51A3,3,0,0,0,.51,2.66,31.61,31.61,0,0,0,0,8.52a31.47,31.47,0,0,0,.51,5.85,3,3,0,0,0,2.15,2.15c1.9.51,9.51.51,9.51.51s7.61,0,9.5-.51a3,3,0,0,0,2.15-2.15,31.47,31.47,0,0,0,.51-5.85A31.61,31.61,0,0,0,23.82,2.66ZM9.73,12.17V4.87l6.32,3.65Z"/></g></g></svg>