<svg xmlns="http://www.w3.org/2000/svg" viewBox="0 0 104.52 217.24"><defs><style>.cls-1{fill:#fff;fill-rule:evenodd;}</style></defs><g id="Layer_2" data-name="Layer 2"><g id="Layer_1-2" data-name="Layer 1"><path class="cls-1" d="M18.45,0h11Q35.71,20.92,42,41.82s0,0,0,0a41.06,41.06,0,0,1,10.29-1.6,55.08,55.08,0,0,1,13.85,1.33,2.08,2.08,0,0,0,.3,0Q79.86,20.83,93.2,0h11.32c-3.27,1.39-5.28,4.26-7.28,7-6,8.25-11.84,16.67-17.8,25-2.48,3.46-4.92,6.94-7.38,10.44a4.82,4.82,0,0,0-.48.7,46.75,46.75,0,0,1,14,7.76c.2.16.73.51.75.68s-.17.57-.2.72c-.91,3.66-1.8,7.3-2.71,10.9-.07.08-.07-.07-.08-.08-.2-.31-.4-.71-.6-1.05a38.92,38.92,0,0,0-2.31-3.39A35.73,35.73,0,0,0,68,48.17a4.6,4.6,0,0,0-.53.7C63.67,54.3,59.78,59.77,56,65.23a36.15,36.15,0,0,0-3.52,6.2A50,50,0,0,0,50,78.66c-.34,1.29-.63,2.61-.93,3.94s-.62,2.62-.9,3.94c-1.15,5.35-2.33,10.72-3.49,16,1.28,1.59,2.64,3.18,3.94,4.79a3.71,3.71,0,0,0,.55.63c1.62-7.52,3.29-15.12,4.89-22.74a15,15,0,0,0,.43-4.12,5.43,5.43,0,0,0-1.08-3.24s-.15-.13,0-.12H69.2c-2.51,10.54-5.12,21-7.66,31.65-.77,3.24-1.6,6.59-2.38,9.91A5.66,5.66,0,0,0,59,120c0,.12.22.31.38.5,2,2.32,4,4.71,5.82,7.13a59.79,59.79,0,0,1,5.58,8.26A26.22,26.22,0,0,1,74,146.46a33.74,33.74,0,0,1-1.51,12.17A37.82,37.82,0,0,1,62,175.85c-4.85,4.55-11,7.65-18.75,9.19q-2.85,11.69-5.7,23.51c-.12.52-.28,1.08-.4,1.69a3.91,3.91,0,0,0,0,1.83c.19.5.74.69,1.5.73s1.52,0,2.24,0c7.47,0,14.62-.2,21.43-.81,2.73-.24,5.4-.54,8-.87,10.55-1.36,20.73-3.09,30.35-5.23.07.05,0,.13-.05.15-1.6,2.77-3.28,5.57-4.92,8.34-.57,1-1.14,1.92-1.69,2.86H23.54c1.75-1.58,2.69-4.07,3.29-6.73,1.84-8.11,3.59-16.48,5.4-24.6a40.36,40.36,0,0,1-10-1.65,55.2,55.2,0,0,1-14.08-6.35A39.12,39.12,0,0,1,0,171.48v-.1c1.15-4.5,2.22-9.09,3.39-13.58a37.39,37.39,0,0,0,11.29,15,42.32,42.32,0,0,0,8.06,5.09,30.31,30.31,0,0,0,4.74,1.84,22.2,22.2,0,0,0,5.83,1l0,0c2-9.68,4.22-19.34,6.3-29,2-9.32,4.12-18.77,6.07-28.13a4.35,4.35,0,0,0,.2-.91c0-.18-.38-.46-.55-.65-1-1.11-1.9-2.15-2.86-3.21-.34-.38-.67-.77-1-1.11,0,0-.09-.16-.16-.07-1,4.68-2,9.49-3,14.18-.56,2.57-.92,6.56.5,8.41.05.06.22.17.12.22H24.27a6.31,6.31,0,0,0,2.34-2.76,16.33,16.33,0,0,0,1.15-4c1.64-8.6,3.11-17.45,4.67-26.08l-5.72-6.33C24.8,99.26,22.78,97.26,21,95a31.52,31.52,0,0,1-4.31-7.75A28,28,0,0,1,14.86,77a35,35,0,0,1,1.61-10.47,35.53,35.53,0,0,1,3.81-8.25,37.45,37.45,0,0,1,12-12.1c-1.56-5.88-3-12-4.62-17.87-.53-2-1-4-1.53-6-1-3.92-2.05-8-3.06-11.94S21.23,2.19,18.45,0ZM51.58,44.28A28.25,28.25,0,0,0,43.25,46c2.14,7.24,4.33,14.43,6.47,21.66a3,3,0,0,0,.43-.62c4.19-6.47,8.36-13,12.52-19.51.25-.37.57-.78.78-1.15,0,0,.09-.12,0-.15A31.94,31.94,0,0,0,51.58,44.28ZM27.81,60.42a25.53,25.53,0,0,0-1.71,5.44,25.14,25.14,0,0,0-.45,6.63,23.43,23.43,0,0,0,1.26,5.9,28.38,28.38,0,0,0,2.26,4.89,40.09,40.09,0,0,0,5.27,7.26,8.42,8.42,0,0,0,.77.8c.1.07,0,.08.08,0a3.58,3.58,0,0,0,.13-.6c0-.22.07-.48.1-.63.81-4.68,1.63-9.18,2.38-13.76a25.41,25.41,0,0,0,.4-5.42,24.82,24.82,0,0,0-.88-5c-1.18-4.71-2.44-9.33-3.61-14,0,0,0,0,0,0A26.37,26.37,0,0,0,27.81,60.42ZM51.23,177.56a25.26,25.26,0,0,0,12.3-15.87,28.2,28.2,0,0,0-.86-16.24,37.26,37.26,0,0,0-7-11.79Q50,156.87,44.45,180.14A25.78,25.78,0,0,0,51.23,177.56Z"/></g></g></svg>